PathFileType	4	(X/Y/Z)	./resultDataOpenSim/trcMotMarkerGrf/sub09/qtm-14-02.trc
DataRate	CameraRate	NumFrames	NumMarkers	Units	OrigDataRate	OrigDataStartFrame	OrigNumFrames
250.000000	250.000000	13	24	m	250.000000	125	496
Frame#	Time	L.Toe.Tip			R.Toe.Tip			L.Ankle.Lat			R.Ankle.Lat			L.Ankle.Med			R.Ankle.Med			L.Heel			R.Heel			L.Knee.Lat			R.Knee.Lat			L.Knee.Med			R.Knee.Med			L.Thigh.Upper			R.Thigh.Upper			L.ASIS			R.ASIS			V.Sacral			L.Acromium			R.Acromium			C7			L.Elbow			R.Elbow			L.Wrist.Lat			R.Wrist.Lat
		X1	Y1	Z1	X2	Y2	Z2	X3	Y3	Z3	X4	Y4	Z4	X5	Y5	Z5	X6	Y6	Z6	X7	Y7	Z7	X8	Y8	Z8	X9	Y9	Z9	X10	Y10	Z10	X11	Y11	Z11	X12	Y12	Z12	X13	Y13	Z13	X14	Y14	Z14	X15	Y15	Z15	X16	Y16	Z16	X17	Y17	Z17	X18	Y18	Z18	X19	Y19	Z19	X20	Y20	Z20	X21	Y21	Z21	X22	Y22	Z22	X23	Y23	Z23	X24	Y24	Z24

125	0.496	-0.20064725	0.079498024	-0.031856663	-0.62125059	0.03867748	0.079135519	-0.35365329	0.0949242	-0.067201419	-0.77025247	0.057890733	0.10438909	-0.33266821	0.11313377	0.028727551	-0.74830023	0.095925276	0.015822673	-0.41309258	0.042185613	-0.016324059	-0.83595998	0.037665884	0.050629833	-0.3839494	0.51272286	-0.086755393	-0.63772299	0.49594837	0.18226727	-0.38889883	0.50403304	0.037335686	-0.65010823	0.49089037	0.053668769	-0.56779067	0.89247636	-0.12328117	-0.60457145	0.89947133	0.24849447	-0.50026297	0.98099722	-0.059832585	-0.49556813	0.98279256	0.18021383	-0.66786602	1.0354373	0.052364045	-0.52039749	1.4339027	-0.11105747	-0.52032521	1.443436	0.21805378	-0.58428081	1.4880587	0.055132577	-0.67787641	1.1015241	-0.15755212	-0.62137004	1.0843068	0.31408842	-0.56480944	0.86543957	-0.19923495	-0.38382724	0.9358113	0.28445894
126	0.5	-0.18204072	0.082389363	-0.03041545	-0.62127597	0.038590154	0.079158525	-0.33538858	0.094670355	-0.066445623	-0.77031818	0.058251076	0.10405117	-0.3151072	0.11383257	0.029705496	-0.74809939	0.095902472	0.015495957	-0.39376089	0.041000547	-0.015604891	-0.83592638	0.037780209	0.050160204	-0.377052	0.51144923	-0.087343867	-0.63580296	0.49546451	0.18212382	-0.38134919	0.50299692	0.037289074	-0.64823702	0.49048449	0.053636828	-0.5616113	0.89111317	-0.12323245	-0.59936584	0.89850389	0.2485548	-0.49384703	0.97962714	-0.059609642	-0.48970192	0.98154624	0.18048366	-0.66239213	1.0344618	0.051127961	-0.51460434	1.4326577	-0.11121163	-0.51479697	1.4423373	0.21799114	-0.57854256	1.4868123	0.054974807	-0.67245303	1.100632	-0.15749535	-0.61490104	1.0827669	0.31433002	-0.56130028	0.86388397	-0.19971249	-0.37586273	0.93667539	0.2841048
127	0.504	-0.16374661	0.085560427	-0.028835631	-0.62129703	0.038535015	0.079230682	-0.31734642	0.0946801	-0.065589199	-0.7703775	0.058568939	0.10377288	-0.29778305	0.11477219	0.030702447	-0.74787552	0.09591733	0.015206188	-0.37467885	0.040095651	-0.014818987	-0.83587406	0.037935384	0.049704442	-0.3703389	0.51012037	-0.087966419	-0.63379057	0.4949718	0.18212085	-0.37451306	0.50168945	0.036879057	-0.6463113	0.49003397	0.053611401	-0.55536235	0.88967755	-0.12317388	-0.59413665	0.89748177	0.24860553	-0.48741463	0.97818677	-0.059387035	-0.48376599	0.9802109	0.18074903	-0.65648518	1.0332435	0.050638008	-0.50875921	1.4313361	-0.11136078	-0.50927831	1.4411695	0.21793598	-0.57279154	1.4854954	0.054816416	-0.6669017	1.0996576	-0.15747746	-0.60839375	1.0811448	0.31453632	-0.55767176	0.86230171	-0.20016616	-0.36795998	0.93744828	0.28378137
128	0.508	-0.1458161	0.089013776	-0.027182785	-0.62131969	0.038546451	0.079372081	-0.29962372	0.094933268	-0.06467484	-0.7704407	0.058792867	0.1035446	-0.2807148	0.1159172	0.031637068	-0.7476335	0.095968328	0.014960037	-0.35587083	0.039431208	-0.013955098	-0.83581131	0.038127869	0.049258102	-0.36382715	0.50871548	-0.088576337	-0.63166874	0.49446228	0.18224136	-0.36801611	0.50016188	0.036382354	-0.64433231	0.48953376	0.053606557	-0.5490611	0.88817039	-0.12309105	-0.58886295	0.89639092	0.24863186	-0.48097268	0.97668455	-0.05915753	-0.47778117	0.97879504	0.18100875	-0.65031616	1.0318293	0.050601272	-0.50283832	1.4299387	-0.11149851	-0.50373961	1.4399235	0.21788046	-0.5670357	1.4841129	0.054663893	-0.66127319	1.0986072	-0.15748797	-0.60184734	1.0794459	0.31470913	-0.55387645	0.86070011	-0.20056229	-0.36008139	0.93811887	0.28345704
129	0.512	-0.12830382	0.092728278	-0.02556547	-0.62135675	0.038621751	0.07956071	-0.28230993	0.095397534	-0.063771059	-0.77050489	0.058957507	0.10333902	-0.26395203	0.11724505	0.032476055	-0.74737627	0.096054468	0.014752908	-0.33736043	0.038963627	-0.012999432	-0.83573972	0.038352818	0.048812404	-0.357363	0.50723067	-0.089122092	-0.62946038	0.49395109	0.18247631	-0.36138177	0.49848559	0.036107615	-0.64226524	0.48898449	0.053655754	-0.54271136	0.88659421	-0.12298002	-0.583546	0.89524002	0.24862951	-0.47452256	0.9751273	-0.058917747	-0.47177049	0.97731644	0.1812606	-0.64407306	1.0302924	0.050689658	-0.49687001	1.4284726	-0.11163426	-0.49815369	1.4385921	0.21781289	-0.56128022	1.4826829	0.054520333	-0.65564184	1.0974831	-0.15750632	-0.59527003	1.0776757	0.31485188	-0.54992402	0.85907748	-0.20090292	-0.35220804	0.93868899	0.28311362
130	0.516	-0.11124498	0.096661652	-0.024062127	-0.62140737	0.038710548	0.0797283	-0.26543975	0.096035369	-0.062926424	-0.77055422	0.059109625	0.10312701	-0.24756969	0.11871576	0.03321647	-0.74709799	0.096179306	0.014576318	-0.31916786	0.038659556	-0.012004586	-0.8356539	0.038609826	0.048352114	-0.35081277	0.50567635	-0.089529128	-0.62722434	0.49345275	0.18285984	-0.35440985	0.49669343	0.036167758	-0.64002982	0.48839971	0.053800209	-0.53631236	0.88494839	-0.12284374	-0.57820929	0.89404809	0.24861062	-0.4680618	0.97351413	-0.058674823	-0.46574319	0.97578908	0.18149999	-0.63783725	1.0286753	0.050754816	-0.49090571	1.4269443	-0.11178058	-0.49251365	1.4371736	0.21772439	-0.55552548	1.4812292	0.054385928	-0.65003457	1.0962856	-0.15752042	-0.58867305	1.0758408	0.31496711	-0.54585896	0.85741245	-0.20121153	-0.34434889	0.93916603	0.28275502
131	0.52	-0.094640027	0.1007537	-0.022664538	-0.62144674	0.038753433	0.079826863	-0.24898082	0.096815787	-0.062154929	-0.77057112	0.05927106	0.10288976	-0.23161976	0.12027842	0.033868884	-0.74677994	0.09634653	0.014416821	-0.3013192	0.038500351	-0.011077116	-0.83554789	0.03890134	0.047861832	-0.34410411	0.50408216	-0.089750888	-0.624982	0.4929534	0.18339254	-0.34724357	0.49481797	0.036442212	-0.63751945	0.48780169	0.054066597	-0.52987625	0.88322744	-0.12268615	-0.57286441	0.89282338	0.24858361	-0.46159365	0.97184527	-0.058444095	-0.45969931	0.97421871	0.18172249	-0.63161005	1.0269984	0.050781234	-0.48496769	1.4253557	-0.11194192	-0.48683844	1.4356771	0.21762044	-0.54975675	1.4797551	0.054252875	-0.64444907	1.0950173	-0.15752397	-0.58206357	1.0739472	0.31505614	-0.54174416	0.85567429	-0.20152626	-0.33652101	0.93954989	0.28238986
132	0.524	-0.078477404	0.10492748	-0.021314738	-0.62144786	0.038736982	0.079870922	-0.2328742	0.097726419	-0.061456154	-0.77055028	0.059445371	0.10262089	-0.21611154	0.12189109	0.03445162	-0.74640293	0.096551947	0.014255411	-0.28384945	0.038470808	-0.010318889	-0.8354183	0.039230885	0.047335494	-0.33722812	0.50249344	-0.089820411	-0.62264712	0.49241501	0.18395234	-0.34015806	0.49291783	0.036719714	-0.63469603	0.48720895	0.054419192	-0.52342779	0.88142208	-0.12252626	-0.56748337	0.89155601	0.24852974	-0.45512819	0.97012869	-0.058247857	-0.45363917	0.97260675	0.18192214	-0.62536509	1.0252603	0.050797249	-0.47904122	1.423706	-0.11211463	-0.48115065	1.4341209	0.21752091	-0.54394869	1.4782364	0.054103195	-0.63887514	1.0936819	-0.15751779	-0.57544145	1.0719977	0.3151177	-0.53763691	0.85384887	-0.20188711	-0.32873666	0.93983789	0.28202498
133	0.528	-0.062763499	0.10909913	-0.019976819	-0.62140552	0.038689428	0.079895088	-0.21708988	0.098774096	-0.060836839	-0.77050371	0.059631398	0.10232816	-0.20103264	0.12351907	0.034992363	-0.74596802	0.096781062	0.014075238	-0.26679819	0.038552956	-0.0097873379	-0.83526722	0.039602726	0.046781572	-0.33025289	0.50094796	-0.089812702	-0.62008844	0.49181161	0.18436414	-0.33327782	0.49105474	0.036897539	-0.63168012	0.48662921	0.05475809	-0.51699215	0.87953181	-0.12239447	-0.56197919	0.89020696	0.2483845	-0.44867631	0.9683743	-0.058103449	-0.44756885	0.97095499	0.18208998	-0.61908626	1.0234586	0.050824751	-0.47310437	1.4219986	-0.11229279	-0.47544849	1.4325199	0.21743525	-0.53808923	1.4766534	0.053924341	-0.63327319	1.0922771	-0.15753424	-0.56880034	1.0699921	0.31514739	-0.53355801	0.85194737	-0.20231385	-0.32099995	0.94003166	0.28166482
134	0.532	-0.047519806	0.11319438	-0.018651622	-0.62133596	0.038637506	0.07991218	-0.20165213	0.09996733	-0.060313643	-0.77044753	0.059831595	0.10202966	-0.18637013	0.12512625	0.035524082	-0.74550272	0.097012949	0.013865182	-0.25020026	0.038724966	-0.0094929664	-0.83510583	0.04001832	0.046224654	-0.32324868	0.49945732	-0.089770602	-0.61722656	0.49114889	0.18452946	-0.32654083	0.48927106	0.037016387	-0.62865882	0.486059	0.05499705	-0.51056696	0.87757122	-0.12231398	-0.55620216	0.88870665	0.2480269	-0.44224409	0.96658901	-0.058008977	-0.44149246	0.96926847	0.18221862	-0.61277717	1.0216064	0.050862208	-0.46714555	1.4202409	-0.11247268	-0.46971645	1.4308807	0.21735235	-0.53218772	1.4750121	0.053721062	-0.62756621	1.0907924	-0.15764449	-0.56213635	1.0679344	0.31514226	-0.52948103	0.84999658	-0.20279548	-0.31330933	0.94013415	0.28131144
135	0.536	-0.032766534	0.11715121	-0.017349446	-0.62126085	0.038590122	0.079917864	-0.18661587	0.10129101	-0.059897999	-0.77038454	0.060052309	0.10173999	-0.17212521	0.1266777	0.036048676	-0.74505419	0.097222299	0.013608919	-0.2340737	0.038952261	-0.0094183668	-0.83495168	0.040474661	0.045701129	-0.31622205	0.49801184	-0.089693835	-0.61404896	0.49044809	0.18446331	-0.31984498	0.48758957	0.037155363	-0.62569424	0.48548837	0.055112586	-0.50411316	0.87555545	-0.12230238	-0.55006378	0.88701882	0.24738142	-0.43583173	0.96477638	-0.057952296	-0.43540389	0.96755449	0.18230695	-0.60645058	1.0197192	0.050887559	-0.46116283	1.4184404	-0.11265654	-0.46394997	1.4292068	0.21726083	-0.52626228	1.4733316	0.05350943	-0.62171373	1.0892249	-0.15788536	-0.55545656	1.0658354	0.3151038	-0.52535707	0.84802903	-0.20330623	-0.30566289	0.94014784	0.28096548
136	0.54	-0.018522184	0.12090554	-0.016072857	-0.62119165	0.038542767	0.079902774	-0.17202414	0.1026874	-0.059579054	-0.77030438	0.060299	0.10146372	-0.15831793	0.12814728	0.036511538	-0.74467298	0.097388013	0.013284211	-0.2184339	0.039191051	-0.0095302831	-0.83481987	0.040967873	0.045245078	-0.3091514	0.49659643	-0.089577391	-0.61061232	0.48972284	0.18427917	-0.31312829	0.48601491	0.03735842	-0.62269192	0.48490625	0.05512438	-0.4975974	0.87349509	-0.12237114	-0.54378573	0.88525567	0.24664196	-0.4294384	0.96293618	-0.057926164	-0.42929574	0.96581761	0.18235793	-0.60012054	1.0178012	0.050877745	-0.45515733	1.4166007	-0.11285282	-0.45815497	1.4275003	0.21715962	-0.5203324	1.4716257	0.053308391	-0.6157851	1.0875938	-0.15818844	-0.54876885	1.063706	0.31503232	-0.52114803	0.84606635	-0.20382545	-0.29806092	0.94007434	0.28062552
137	0.544	-0.0048150779	0.12438936	-0.01483752	-0.62112466	0.038480159	0.079856469	-0.15790402	0.10406301	-0.059321978	-0.77019653	0.060571838	0.10120402	-0.14498085	0.12951648	0.036856932	-0.74437838	0.097520918	0.012894429	-0.20334238	0.0394198	-0.0097716269	-0.83471649	0.041497674	0.044875827	-0.30202569	0.49520328	-0.089431634	-0.60699647	0.48896259	0.1841004	-0.30635797	0.4845326	0.037626784	-0.61953151	0.4843002	0.055065787	-0.49103037	0.8714054	-0.12251001	-0.53785312	0.88364727	0.24623973	-0.42306452	0.96106672	-0.057927222	-0.42317198	0.96405682	0.18237374	-0.59379848	1.0158456	0.050824917	-0.44912861	1.4147215	-0.11306741	-0.452335	1.4257624	0.21705086	-0.51441615	1.4699005	0.053135095	-0.60989023	1.0859256	-0.15844724	-0.54206945	1.061552	0.31492395	-0.51683192	0.84409823	-0.2043343	-0.29050548	0.93991161	0.28029002
